# xmcd
#
# Track frame offsets:
#  150
#  19899
#  39178
#  65092
#  86772
#  106185
#  125916
#  137836
#  156848
#  173205
#  194894
#  217693
#  232814
#  253029
#  268325
#  289482
#
# Disc length: 4131 seconds
#
# Revision: 0
# Processed by: cddbd v1.4PL0 Copyright (c) Steve Scherf et al.
# Submitted via: AltoMP3_Maker 3.0
#
DISCID=f4102110
DTITLE=周蕙 - 爱过不伤心
DYEAR=1900
DGENRE=
TTITLE0=爱过不伤心
TTITLE1=好想好好爱你
TTITLE2=替身
TTITLE3=相遇太早
TTITLE4=不想让你知道
TTITLE5=约定
TTITLE6=空白
TTITLE7=Angel  Face
TTITLE8=换季
TTITLE9=话题
TTITLE10=温度
TTITLE11=思念的翅膀
TTITLE12=事到如今
TTITLE13=太茫
TTITLE14=不哭
TTITLE15=没有你
EXTD=
EXTT0=
EXTT1=
EXTT2=
EXTT3=
EXTT4=
EXTT5=
EXTT6=
EXTT7=
EXTT8=
EXTT9=
EXTT10=
EXTT11=
EXTT12=
EXTT13=
EXTT14=
EXTT15=
PLAYORDER=
